<?xml version="1.0" standalone="no"?><!DOCTYPE svg PUBLIC "-//W3C//DTD SVG 1.1//EN" "http://www.w3.org/Graphics/SVG/1.1/DTD/svg11.dtd"><svg t="1692156511113" class="icon" viewBox="0 0 1025 1024" version="1.1" xmlns="http://www.w3.org/2000/svg" p-id="11327" xmlns:xlink="http://www.w3.org/1999/xlink" width="200.1953125" height="200"><path d="M1012.729 401.885c59.995 266.134-108.34 530.792-375.988 591.128-267.652 60.338-533.258-106.496-593.254-372.633C-16.508 354.247 159.63 87.83 419.477 29.252c267.648-60.337 533.255 106.498 593.252 372.633z" fill="#D72747" p-id="11328"></path><path d="M1012.729 401.885c7.166 31.608 11.256 63.912 12.244 96.322 0.456 16.207 0.199 32.439-0.896 48.628a512.933 512.933 0 0 1-5.604 48.35c-10.573 64.1-33.711 126.213-67.727 182.023-33.984 55.816-78.813 105.383-131.766 144.824-26.482 19.689-54.896 36.975-84.859 51.271a517.554 517.554 0 0 1-93.674 34.154c-32.303 8.363-65.529 13.684-99.07 15.664-33.537 1.949-67.384 0.67-100.845-4.057-33.449-4.752-66.552-12.719-98.568-24.035a505.054 505.054 0 0 1-47.163-19.316 505.518 505.518 0 0 1-45.1-23.963c-58.568-34.916-110.292-81.867-150.688-137.4-20.227-27.734-37.597-57.602-51.791-88.912a515.981 515.981 0 0 1-18.867-47.969 525.836 525.836 0 0 1-13.922-49.605C6.82 594.309 2.604 559.93 2.074 525.506c-0.305-17.209 0.329-34.429 1.84-51.558a491.97 491.97 0 0 1 7.14-51.029c12.968-67.471 39.819-131.867 77.651-188.508a524.248 524.248 0 0 1 64.469-78.82c23.908-24.076 50.201-45.676 78.216-64.563 28.015-18.899 57.916-34.858 88.979-47.746a497.169 497.169 0 0 1 96.261-28.829c65.498-12.631 133.218-12.398 197.937 0.621C679.333 27.99 741.09 53.565 795.734 89.415c54.668 35.835 102.211 82.027 139.256 135.395a512.616 512.616 0 0 1 25.803 41.274c7.936 14.152 15.129 28.708 21.671 43.542 6.533 14.841 12.278 30.018 17.349 45.41a498.446 498.446 0 0 1 12.916 46.849z m0 0a498.252 498.252 0 0 0-13.055-46.804c-5.109-15.376-11.059-30.468-17.697-45.239-6.629-14.777-14.083-29.178-22.197-43.181-8.105-14.011-16.959-27.579-26.467-40.66-37.99-52.372-86.719-96.688-141.928-129.647a476.545 476.545 0 0 0-42.515-22.613 476.634 476.634 0 0 0-44.457-18.223C674.24 44.83 643.039 37.342 611.53 32.866c-31.521-4.46-63.397-5.645-94.983-3.805-31.606 1.881-62.855 6.891-93.383 14.805-30.343 7.868-59.875 18.854-87.902 32.56-28.064 13.675-54.611 30.211-79.358 48.96-49.464 37.58-91.366 84.489-123.364 137.041-32.017 52.55-54.087 110.828-64.377 170.926a479.143 479.143 0 0 0-5.523 45.328 472.99 472.99 0 0 0-1.059 45.583c0.809 30.383 4.582 60.664 11.344 90.311a466.495 466.495 0 0 0 12.207 44.004c4.756 14.459 10.192 28.693 16.34 42.617 12.244 27.871 27.235 54.537 44.644 79.576 34.823 50.074 79.521 93.473 130.952 127.152 51.405 33.699 109.508 57.754 170.431 69.893 60.896 12.238 124.542 12.484 186.37 0.563 30.91-5.943 61.346-14.84 90.688-26.717 29.324-11.904 57.62-26.648 84.17-44.227 26.547-17.568 51.51-37.736 74.178-60.344a481.432 481.432 0 0 0 61.026-74.229c35.718-53.475 60.706-114.42 72.542-178.029a465.99 465.99 0 0 0 6.456-48.084c1.322-16.131 1.872-32.336 1.52-48.53-0.343-16.19-1.442-32.375-3.428-48.456a499.193 499.193 0 0 0-8.292-47.879z" fill="#B1DAE0" p-id="11329"></path><path d="M974.876 692.52c-54.165 146.25-103.381 0-111.665 0H215.972c41.585 19.678-91.096 115.684-95.261-26.25 0 0-35.029-33.84-6.04-77.5 42.705-64.322 93.018-16.406 101.301-16.406h647.239c8.284 0 35-54.844 90-37.76 0 0 58.125 27.916 16.665 88.33-9.072 13.228 16.994 37.203 5 69.586z" fill="#F1F1EF" p-id="11330"></path><path d="M923.694 760.02c-23.457 0-42.107-32.9-53.252-52.555-2.969-5.238-6.313-11.137-7.734-12.445H223.419c2.844 3.438 3.781 7.816 2.656 12.826-3.758 16.729-30.604 37.166-56.58 37.168h-0.005c-18.208 0-48.979-10.121-51.247-77.709-5.003-5.391-33.04-38.674-5.657-79.918 15.278-23.012 33.45-34.68 54.004-34.68 17.483 0 32.79 8.469 41.938 13.533 3.027 1.674 6.463 3.574 7.451 3.623H863.21c1.243-0.24 5.13-4.424 8.252-7.785 11.563-12.445 30.908-33.275 61.03-33.275 6.953 0 14.175 1.148 21.46 3.414l0.342 0.131c1.006 0.484 24.746 12.135 31.343 36.855 4.487 16.807-0.122 35.361-13.699 55.146-3.225 4.703-0.759 11.842 2.363 20.879 4.463 12.92 10.018 28.994 2.918 48.16-16.603 44.835-34.113 66.632-53.525 66.632z m-718.849-70h658.366c2.959 0 4.99 3.352 11.582 14.98 10.605 18.705 28.359 50.02 48.901 50.02 16.834 0 33.267-21.318 48.838-63.369 6.477-17.486 1.245-32.623-2.957-44.787-3.439-9.959-6.413-18.563-1.76-25.342 12.715-18.529 17.085-35.697 12.993-51.029-5.752-21.547-26.543-32.553-28.53-33.559-6.738-2.076-13.396-3.131-19.785-3.131-27.941 0-46.362 19.83-57.368 31.678-5.618 6.051-8.714 9.383-11.914 9.383H215.972c-2.185 0-5.075-1.6-9.865-4.248-9.287-5.143-23.325-12.908-39.517-12.908-18.774 0-35.542 10.916-49.839 32.443-27.52 41.445 5.361 73.998 5.698 74.322l0.732 0.705 0.029 1.018c1.396 47.604 17.832 73.818 46.279 73.818h0.005c23.408-0.002 48.408-18.604 51.699-33.264 1.213-5.393-0.903-9.422-6.291-11.971l-10.057-4.759z" fill="#070001" p-id="11331"></path><path d="M314.046 601.27c-33.75-33.75-42.293-328.543 0-370.835 42.29-42.29 398.125-46.875 445 0s35.415 335.417 0 370.835c-35.418 35.418-411.25 33.75-445 0z" fill="#FFFFFF" p-id="11332"></path><path d="M539.627 629.711c-99.888 0-208.926-8.246-227.349-26.674-18.716-18.713-28.281-108.472-29.248-183.951-0.986-76.929 6.177-167.349 29.248-190.42 23.491-23.491 135.822-34.189 230.252-34.189 88.996 0 193.073 8.979 218.283 34.189 25.305 25.308 32.91 115.53 31.592 191.526-1.289 74.135-11.727 162.975-31.592 182.844-19.687 19.689-131.455 26.675-221.186 26.675z m2.903-430.234c-114.219 0-207.449 13.457-226.717 32.725-18.104 18.103-29.009 91.436-27.783 186.821 1.147 89.629 12.832 165.53 27.783 180.479 14.842 14.844 106.88 25.209 223.813 25.209 115.107 0 202.573-10.131 217.651-25.209 15.928-15.928 28.596-91.375 30.127-179.395 1.301-74.971-5.928-163.703-30.127-187.905-19.881-19.878-104.173-32.725-214.747-32.725z" fill="#070001" p-id="11333"></path><path d="M200.972 365.437l114.246-137.635-10.757 184.717z" fill="#FFFFFF" p-id="11334"></path><path d="M306.746 416.303l-109.788-49.946 121.197-146.008-11.409 195.954z m-101.761-51.787l97.19 44.219 10.103-173.479-107.293 129.26z" fill="#070001" p-id="11335"></path><path d="M863.966 359.187L749.72 221.552l10.757 184.717z" fill="#FFFFFF" p-id="11336"></path><path d="M758.191 410.053l-11.409-195.954 121.197 146.008-109.788 49.946z m-5.532-181.048l10.103 173.479 97.19-44.219-107.293-129.26zM537.747 517.52h6.714v109.688h-6.714z" fill="#070001" p-id="11337"></path><path d="M592.591 435.134l-51.565 89.313-51.565-89.313z" fill="#070001" p-id="11338"></path><path d="M414.043 302.937m-5.833 0a5.833 5.833 0 1 0 11.666 0 5.833 5.833 0 1 0-11.666 0Z" fill="#070001" p-id="11339"></path><path d="M664.043 302.937m-5.833 0a5.833 5.833 0 1 0 11.666 0 5.833 5.833 0 1 0-11.666 0Z" fill="#070001" p-id="11340"></path></svg>